# xmcd
#
# Track frame offsets:
#	150
#	12515
#	25117
#	38785
#	48885
#	59460
#	68760
#	79657
#	91022
#	102575
#
# Disc length: 1547 seconds
#
# Revision: 1
# Processed by: cddbd v1.4PL0 Copyright (c) Steve Scherf et al.
# Submitted via: audiograbber 1.81.02
#
DISCID=7506090a
DTITLE=Johny Paycheck - One Dollar
DYEAR=1900
DGENRE=Country
TTITLE0=Take This Job and Shove It
TTITLE1=She's All I Got
TTITLE2=The Only Hell My Mamma Ever Raised
TTITLE3=Motel Time Again
TTITLE4=Jukebox Charlie
TTITLE5=Mr. Lovemaker
TTITLE6=Apartment #9
TTITLE7=Release Me
TTITLE8=Heartaches by the Number
TTITLE9=Slide Off Them Satin Sheets
EXTD=
EXTT0=
EXTT1=
EXTT2=
EXTT3=
EXTT4=
EXTT5=
EXTT6=
EXTT7=
EXTT8=
EXTT9=
PLAYORDER=
